<?xml version="1.0" encoding="UTF-8" standalone="no"?>
<!DOCTYPE svg PUBLIC "-//W3C//DTD SVG 1.1//EN" "http://www.w3.org/Graphics/SVG/1.1/DTD/svg11.dtd">
<svg version="1.1" xmlns="http://www.w3.org/2000/svg" xmlns:xlink="http://www.w3.org/1999/xlink" preserveAspectRatio="xMidYMid meet" viewBox="0 0 300 500" width="300" height="500"><defs><path d="M87.79 53.78C83.72 48.55 82.56 34.59 82.56 31.1C82.56 28.78 87.21 22.58 96.51 12.5" id="cV1RDt2fM"></path><path d="M115.81 9.36C129.06 17.17 158.96 61.86 153.46 67.11C147.96 72.36 133.82 73.36 113.82 77.36C100.49 80.03 88.16 81.28 76.82 81.11C76.78 80.11 78.03 75.94 80.57 68.61C83.06 61.42 81.65 54.37 76.33 47.45C76.16 47.23 76.02 46.98 75.91 46.71C73.39 40.52 72.86 34.9 74.32 29.86C75.82 24.69 79.41 19.53 85.07 14.36C96.73 5.82 106.98 4.15 115.81 9.36Z" id="h4AARLxVu2"></path><path d="" id="aeBjqn75Q"></path><path d="M112.98 23.73C115.05 20.56 114.73 15.59 116.52 14.8C122.77 12.05 144.27 53.8 136.02 59.8C130.52 63.8 124.02 65.22 116.52 64.05C122.68 71.55 125.52 75.63 125.02 76.3C124.27 77.3 114.77 80.55 115.27 78.3C115.6 76.8 111.1 68.22 101.77 52.55C99.1 55.05 96.68 53.72 94.52 48.55C92.35 43.38 94.77 40.38 101.77 39.55C106.5 33.19 110.23 27.92 112.98 23.73Z" id="bke6IFhCu"></path><path d="M69.16 82.54C67.89 83.54 65.96 83.81 61.13 89.78C56.3 95.75 61.94 110.45 70.13 115.95C75.59 119.61 79.17 121.22 80.88 120.78C75.38 133.79 72.05 141.29 70.88 143.29C69.13 146.29 65.38 180.03 65.44 180.28C65.5 180.53 61.37 213.05 63.94 227.52C66.51 241.99 72.02 280.58 75.46 280.15C77.75 279.85 84 278.31 94.21 275.52L99.46 247.52C114 243.4 124.75 240.73 131.71 239.52C138.49 238.34 143.94 236.52 152.5 234.62C155.45 233.97 159.2 233.4 163.04 232.21C165.2 231.54 167.38 231.7 169.46 229.02C185.96 207.77 125.08 71.81 117.21 75.05C111.96 77.21 100.21 78.7 81.96 79.52C74.28 80.87 70.01 81.87 69.16 82.54Z" id="b29SB7Vwhc"></path><path d="M149.76 138.58C164.05 171.24 165.8 189.82 169.9 206.23C173.99 222.64 189.82 202.45 196.64 200.7C203.45 198.95 163.82 140.45 159.14 136.7C156.01 134.2 145.36 113.63 127.17 74.99L123.52 75.4C121.34 76.89 119.98 77.75 119.44 78C119.05 78.18 137.09 109.62 149.76 138.58Z" id="c1KBm9RXbv"></path><path d="M145.34 117.71C150.92 127.09 156.84 135.36 163.09 142.52C169.34 149.68 178.5 164.32 190.59 186.46C197.78 188.13 205.06 189.69 212.41 191.14C219.76 192.6 230.32 192.28 244.09 190.21L251.09 173.77C241.3 170.84 234.05 167.24 229.34 162.96C222.26 156.53 218.5 159.35 203.03 143.27C192.72 132.55 167.43 109.53 127.16 74.21L145.34 117.71Z" id="d4ZIwJGi9Y"></path><path d="M148.58 342.18C142.88 359.77 128.82 393.63 106.39 443.74L75.77 443.74C92.22 373.34 100.33 330.75 100.11 315.95C99.77 293.76 108.3 250.43 104.77 243.86C101.25 237.28 169.69 233.16 170.42 224.99C170.9 219.55 170.77 213.16 170.02 205.82C176.15 205.76 180.82 205.16 184.02 204.03C188.83 202.34 157.13 315.79 148.58 342.18Z" id="a5oxq7T6BU"></path><path d="M183.76 204.22L172.46 254.68L153.46 321.99L183.08 442.63L198.83 443.15C208.43 443.57 213.53 443.07 214.13 441.63C215.79 437.63 212.96 318.88 207.13 273.96C201.29 229.04 191.88 201.21 192.13 200.63C192.2 200.46 189.41 201.65 183.76 204.22Z" id="a8JRlZVhy"></path><path d="M92.69 457.35C83.08 460.48 77.22 460.2 75.11 456.51L79.01 443.29L102.78 443.29C101.8 445.63 101.19 447.1 100.95 447.68C100.09 449.73 98.98 452.88 99.9 454.88C99.96 455 97.68 455.19 97.74 455.31C97.79 455.39 107.09 452.64 92.69 457.35Z" id="ch0KAATiz"></path><path d="M208.41 442.6C208.87 446.34 209.16 449.11 209.28 450.91C209.46 453.62 210.23 453.21 208.96 454.39C206.49 456.7 199.76 457.76 188.79 457.56L185.8 442.56L208.41 442.6Z" id="d3tp1WNfed"></path><path d="M86.44 458.14L100.11 454.23C104.53 456.41 108.8 458.77 112.94 461.31C117.08 463.84 126.91 466.69 142.44 469.86L144.23 471.31L142.94 479.14L73.91 479.14L71.11 474.97L72.44 456.97C73.8 455.48 75.41 455.71 77.28 457.68C79.14 459.66 82.19 459.81 86.44 458.14Z" id="an2mKaH1S"></path><path d="" id="b5cmhLzI0K"></path><path d="M248.18 467.67C259.49 469.34 257.8 471.18 257.79 471.84C257.78 472.28 257.57 473.36 257.18 475.08L255.97 478.34L187.52 477.67L185.66 475.08C184.79 461.05 185.24 454.42 187.02 455.17C189.7 456.31 196.65 456.6 199.72 456.38C202.8 456.16 206.58 454.35 212.52 452.67C218.47 451 220.14 463.54 248.18 467.67Z" id="fyltoG7jV"></path><path d="M92.48 276.5C91.76 278.95 91.12 283.55 92.02 287.1C92.92 290.65 97.92 294.4 100.42 298.1C102.92 301.8 100.97 302.9 97.62 302.5C94.27 302.1 94.22 297.95 88.22 298.5C82.22 299.05 79.57 309.95 69.82 312.7C60.07 315.45 56.09 311.6 56.42 310.9C56.42 310.9 56.42 310.9 56.42 310.9C57.02 308.79 58.02 306.81 59.37 305.08C61.37 302.5 66.39 296.06 74.42 285.76L76.07 279.9C87.49 276 92.96 274.87 92.48 276.5Z" id="f1YnU7HqV0"></path><path d="M260.32 178.2C266.79 178.9 270.91 178.21 275.19 178.99C279.48 179.77 287.63 183.25 284.19 184.49C280.76 185.74 271.94 187.99 269.94 187.96C267.94 187.94 265.42 189.15 265.44 192.37C265.47 195.59 269.46 194.01 269.56 197.26C269.63 199.42 268.6 200.09 266.47 199.26L260.18 195.78L245.47 186.86L250.06 175.99C252.59 177 256.01 177.73 260.32 178.2Z" id="akEYjoEyP"></path><path d="M104.81 245.35C105.34 242.75 105.19 242.68 107.41 239.15C108.89 236.8 106.72 223.95 100.9 200.61L99.11 246.75C102.56 247.55 104.46 247.08 104.81 245.35Z" id="c30VSTMRNl"></path></defs><g><g><g><g><use xlink:href="#cV1RDt2fM" opacity="1" fill-opacity="0" stroke="#000000" stroke-width="1" stroke-opacity="1"></use></g></g><g><use xlink:href="#h4AARLxVu2" opacity="1" fill="#191847" fill-opacity="1"></use></g><g><g><use xlink:href="#aeBjqn75Q" opacity="1" fill-opacity="0" stroke="#000000" stroke-width="1" stroke-opacity="1"></use></g></g><g><use xlink:href="#bke6IFhCu" opacity="1" fill="#eac7a8" fill-opacity="1"></use></g><g><use xlink:href="#b29SB7Vwhc" opacity="1" fill="#ff9b21" fill-opacity="1"></use></g><g><use xlink:href="#c1KBm9RXbv" opacity="1" fill="#dee4ea" fill-opacity="1"></use></g><g><use xlink:href="#d4ZIwJGi9Y" opacity="1" fill="#e87d22" fill-opacity="1"></use></g><g><use xlink:href="#a5oxq7T6BU" opacity="1" fill="#89c5cc" fill-opacity="1"></use></g><g><use xlink:href="#a8JRlZVhy" opacity="1" fill="#69a1ac" fill-opacity="1"></use></g><g><use xlink:href="#ch0KAATiz" opacity="1" fill="#eac7a8" fill-opacity="1"></use></g><g><use xlink:href="#d3tp1WNfed" opacity="1" fill="#d3b398" fill-opacity="1"></use></g><g><use xlink:href="#an2mKaH1S" opacity="1" fill="#191847" fill-opacity="1"></use></g><g><g><use xlink:href="#b5cmhLzI0K" opacity="1" fill-opacity="0" stroke="#000000" stroke-width="1" stroke-opacity="1"></use></g></g><g><use xlink:href="#fyltoG7jV" opacity="1" fill="#191847" fill-opacity="1"></use></g><g><use xlink:href="#f1YnU7HqV0" opacity="1" fill="#eac7a8" fill-opacity="1"></use></g><g><use xlink:href="#akEYjoEyP" opacity="1" fill="#eac7a8" fill-opacity="1"></use></g><g><use xlink:href="#c30VSTMRNl" opacity="1" fill="#e87d22" fill-opacity="1"></use></g></g></g></svg>